<svg width="100" height="100" viewBox="0 0 100 100" xmlns="http://www.w3.org/2000/svg">
  <!-- DEBUG:SYNTHETIC-ASSET-V1 -->
  <rect x="0" y="0" width="100" height="100" fill="transparent"/>
  
  <circle cx="50" cy="50" r="45" fill="#26A17B"/>
  <path d="M55.7 54.3v-.006c-.34.025-2.11.13-6.06.13-3.15 0-5.37-.094-6.15-.13v.01c-12.13-.53-21.17-2.64-21.17-5.17 0-2.52 9.04-4.63 21.17-5.17v8.24c.79.056 3.06.19 6.2.19 3.76 0 5.65-.155 6.0-.187v-8.24c12.1.54 21.12 2.65 21.12 5.17 0 2.52-9.02 4.63-21.12 5.17m0-11.19v-7.38h16.88V24.4H26.86v11.25h16.88v7.375c-13.72.63-24.04 3.35-24.04 6.6 0 3.25 10.32 5.97 24.04 6.6v23.64h12.2v-23.65c13.7-.63 24.0-3.35 24.0-6.6 0-3.25-10.3-5.97-24.0-6.6" fill="#FFF"/>
  
  <!-- Hidden indicator -->
  <rect x="95" y="95" width="5" height="5" fill="#FF0000" opacity="0.01"/>
</svg>
